# AST/ASF file generated using VICON BodyLanguage
# -----------------------------------------------
:version 1.10
:name VICON
:units
  mass 1.0
  length 0.45
  angle deg
:documentation
   .ast/.asf automatically generated from VICON data using
   VICON BodyBuilder and BodyLanguage model FoxedUp or BRILLIANT.MOD
:root
   order TX TY TZ RX RY RZ
   axis XYZ
   position 0 0 0  
   orientation 0 0 0 
:bonedata
  begin
     id 1 
     name lhipjoint
     direction 0.660183 -0.676772 0.325788 
     length 2.75133 
     axis 0 0 0  XYZ
  end
  begin
     id 2 
     name lfemur
     direction 0.34202 -0.939693 0  
     length 7.70317  
     axis 0 0 20  XYZ
    dof rx ry rz
    limits (-160.0 20.0)
           (-70.0 70.0)
           (-60.0 70.0)
  end
  begin
     id 3 
     name ltibia
     direction 0.342105 -0.939662 0   
     length 7.18701   
     axis 0 0 20   XYZ
    dof rx
    limits (-10.0 170.0)
  end
  begin
     id 4 
     name lfoot
     direction 0.14163 -0.389126 0.910232   
     length 2.41719   
     axis -90 7.62852e-016 20   XYZ
    dof rx rz
    limits (-45.0 90.0)
           (-70.0 20.0)
  end
  begin
     id 5 
     name ltoes
     direction 1.53533e-011 -4.21926e-011 1   
     length 1.18611   
     axis -90 7.62852e-016 20   XYZ
    dof rx
    limits (-90.0 20.0)
  end
  begin
     id 6 
     name rhipjoint
     direction -0.6658 -0.67229 0.323631   
     length 2.76968  
     axis 0 0 0  XYZ 
  end
  begin
     id 7 
     name rfemur
     direction -0.34202 -0.939693 0   
     length 7.92547   
     axis 0 0 -20   XYZ
    dof rx ry rz
    limits (-160.0 20.0)
           (-70.0 70.0)
           (-70.0 60.0)
  end
  begin
     id 8 
     name rtibia
     direction -0.342022 -0.939692 0   
     length 7.22641   
     axis 0 0 -20   XYZ
    dof rx
    limits (-10.0 170.0)
 end
 begin
     id 9 
     name rfoot
     direction -0.105675 -0.29034 0.951071   
     length 2.48149  
     axis -90 -7.62852e-016 -20   XYZ
    dof rx rz
    limits (-45.0 90.0)
           (-20.0 70.0)
  end
  begin
     id 10 
     name rtoes
     direction -1.5349e-011 -4.21859e-011 1   
     length 1.23343   
     axis -90 -7.62852e-016 -20   XYZ
    dof rx
    limits (-90.0 20.0)
  end
  begin
     id 11 
     name lowerback
     direction 0.0104173 0.993624 -0.112266   
     length 2.00527   
     axis 0 0 0   XYZ
    dof rx ry rz
    limits (-20.0 45.0)
           (-30.0 30.0)
           (-30.0 30.0)
  end
  begin
     id 12 
     name upperback
     direction 0.00733149 0.999856 -0.0152913   
     length 2.01385   
     axis 0 0 0   XYZ
    dof rx ry rz
    limits (-20.0 45.0)
           (-30.0 30.0)
           (-30.0 30.0)
  end
  begin
     id 13 
     name thorax
     direction 0.0026304 0.999318 0.036841   
     length 2.03734   
     axis 0 0 0   XYZ
    dof rx ry rz
    limits (-20.0 45.0)
           (-30.0 30.0)
           (-30.0 30.0)
  end
  begin
     id 14 
     name lowerneck
     direction 0.0293154 0.998757 0.0403082   
     length 1.65303   
     axis 0 0 0   XYZ
    dof rx ry rz
    limits (-20.0 45.0)
           (-30.0 30.0)
           (-30.0 30.0)
  end
  begin
     id 15 
     name upperneck
     direction -0.0376619 0.998184 -0.0470083   
     length 1.60926   
     axis 0 0 0   XYZ
    dof rx ry rz
    limits (-20.0 45.0)
           (-30.0 30.0)
           (-30.0 30.0)
  end
  begin
     id 16
     name head
     direction -0.0170133 0.999635 -0.0209778  
     length 1.73625  
     axis 0 0 0   XYZ
    dof rx ry rz
    limits (-20.0 45.0)
           (-30.0 30.0)
           (-30.0 30.0)
  end
  begin
     id 17 
     name lclavicle
     direction 0.919857 0.39181 -0.0186333  
     length 3.75313  
     axis 0 0 0   XYZ
    dof ry rz
    limits (-20.0 10.0)
           (0.0 20.0)
  end
  begin
     id 18 
     name lhumerus
     direction 1 -4.48988e-011 1.44029e-027   
     length 5.49313   
     axis 180 -30 -90   XYZ
    dof rx ry rz
    limits (-60.0 90.0)
           (-90.0 90.0)
           (-90.0 90.0)
  end
  begin
     id 19
     name lradius
     direction 1 -4.48924e-011 7.46281e-027   
     length 3.29037   
     axis 180 -30 -90   XYZ
    dof rx
    limits (-10.0 170.0)
  end
  begin
     id 20
     name lwrist
     direction 1 -4.48955e-011 2.19879e-026   
     length 1.64519   
     axis -1.34358e-014 90 90   XYZ
    dof ry
    limits (-180.0 0.0)
 end
  begin
     id 21 
     name lhand
     direction 1 -4.48978e-011 4.39747e-026   
     length 0.729656   
     axis -2.80598e-014 90 90   XYZ
    dof rx rz
    limits (-90.0 90.0)
           (-45.0 45.0)
  end
  begin
     id 22 
     name lfingers
     direction 1 -4.49071e-011 8.79411e-026   
     length 0.588268   
     axis -5.61193e-014 90 90   XYZ
    dof rx
    limits (0.0 90.0)
  end
  begin
     id 23
     name lthumb
     direction 0.707107 -6.34817e-011 0.707107   
     length 0.844638   
     axis -90 45 -9.86923e-015   XYZ
    dof rx rz
    limits (-45.0 45.0)
           (-45.0 45.0)
  end
  begin
     id 24 
     name rclavicle
     direction -0.919898 0.388279 0.0550233   
     length 3.7171  
     axis 0 0 0   XYZ 
    dof ry rz
    limits (-10.0 20.0)
           (-20.0 0.0)
  end
  begin
     id 25 
     name rhumerus
     direction -1 -4.48968e-011 9.98372e-028  
     length 5.23684   
     axis 180 30 90   XYZ
    dof rx ry rz
    limits (-90.0 60.0)
           (-90.0 90.0)
           (-90.0 90.0)
  end
  begin
     id 26 
     name rradius
     direction -1 -4.48956e-011 1.01023e-026   
     length 3.38251   
     axis 180 30 90   XYZ
    dof rx
    limits (-10.0 170.0)
  end
  begin
     id 27 
     name rwrist
     direction -1 -4.4892e-011 2.19886e-026   
     length 1.69126   
     axis -1.34358e-014 -90 -90   XYZ
    dof ry
    limits (-180.0 0.0)
  end
  begin
     id 28
     name rhand
     direction -1 -4.49024e-011 4.39727e-026   
     length 0.691454   
     axis -2.80598e-014 -90 -90   XYZ
    dof rx rz
    limits (-90.0 90.0)
           (-45.0 45.0)
  end
  begin
     id 29
     name rfingers
     direction -1 -4.49097e-011 8.79388e-026   
     length 0.557468   
     axis -5.61193e-014 -90 -90   XYZ
    dof rx
    limits (0.0 90.0)
  end
  begin
     id 30
     name rthumb
     direction -0.707107 -6.34938e-011 0.707107   
     length 0.800416   
     axis -90 -45 9.86923e-015   XYZ
    dof rx rz
    limits (-45.0 45.0)
           (-45.0 45.0)
  end
:hierarchy
  begin
    root lhipjoint rhipjoint lowerback
    lhipjoint lfemur
    lfemur ltibia
    ltibia lfoot
    lfoot ltoes
    rhipjoint rfemur
    rfemur rtibia
    rtibia rfoot
    rfoot rtoes
    lowerback upperback
    upperback thorax
    thorax lowerneck lclavicle rclavicle
    lowerneck upperneck
    upperneck head
    lclavicle lhumerus
    lhumerus lradius
    lradius lwrist
    lwrist lhand lthumb
    lhand lfingers
    rclavicle rhumerus
    rhumerus rradius
    rradius rwrist
    rwrist rhand rthumb
    rhand rfingers
  end

#!OML:ASF H:\BabyWalks\Project 1\Capture day 1\Session 1\baby.ASF
:FULLY-SPECIFIED
:DEGREES
181
root -6.34116 17.7761 -21.8193 -32.9847 86.2744 -37.9816
lowerback 20.4945 -1.81918 -3.33958
upperback 5.39142 -2.8482 -2.08714
thorax -5.53055 -1.21414 0.347822
lowerneck -4.26441 1.16248 4.60446
upperneck -2.84328 1.48114 2.66381
head -0.159659 0.740341 0.0773814
rclavicle -1.74931e-014 6.36111e-015
rhumerus -57.1482 9.07081 -88.6584
rradius 42.7058
rwrist 1.86505
rhand -6.22441 -17.0636
rfingers 7.12502
rthumb 19.6166 -46.0939
lclavicle -1.74931e-014 6.36111e-015
lhumerus -22.4659 -9.12042 67.9849
lradius 49.1861
lwrist -10.3082
lhand -7.94937 3.6047
lfingers 7.12502
lthumb 17.9576 32.7957
rfemur -19.1579 8.51245 19.1779
rtibia 60.1454
rfoot -11.4413 19.9393
rtoes -6.82727
lfemur -21.1633 1.57896 -14.3701
ltibia 38.1233
lfoot -24.1065 -11.3835
ltoes -0.703156
182
root -6.21987 17.8186 -21.7985 -37.3938 86.7055 -42.5544
lowerback 20.5494 -2.03194 -3.44604
upperback 5.44677 -3.13067 -1.90333
thorax -5.47451 -1.35075 0.673817
lowerneck -4.57013 1.1217 4.36523
upperneck -2.69416 1.41118 2.67801
head -0.0675486 0.712964 0.121353
rclavicle 1.27222e-014 7.95139e-015
rhumerus -57.338 9.63361 -88.7235
rradius 42.7007
rwrist 1.71238
rhand -4.52765 -17.2442
rfingers 7.12502
rthumb 21.2472 -46.0997
lclavicle 1.27222e-014 7.95139e-015
lhumerus -20.7506 -8.97514 67.9294
lradius 50.8561
lwrist -9.17494
lhand -9.34461 3.85989
lfingers 7.12502
lthumb 16.6147 33.1687
rfemur -20.1232 8.15171 19.2026
rtibia 59.4157
rfoot -12.5596 18.3975
rtoes -7.04255
lfemur -20.5658 1.36074 -14.4058
ltibia 37.2787
lfoot -23.9118 -11.585
ltoes -0.765627
183
root -6.09684 17.8613 -21.7763 -42.6113 87.0695 -47.9362
lowerback 20.5931 -2.22621 -3.55306
upperback 5.48325 -3.39025 -1.71024
thorax -5.42993 -1.47678 1.00416
lowerneck -4.83887 1.07208 4.13684
upperneck -2.55072 1.33268 2.68259
head 0.0175934 0.680357 0.160119
rclavicle -1.11319e-014 -1.59028e-014
rhumerus -57.5396 10.1693 -88.7454
rradius 42.7411
rwrist 1.54309
rhand -2.84115 -17.4631
rfingers 7.12502
rthumb 22.8664 -46.1275
lclavicle -1.11319e-014 -1.59028e-014
lhumerus -19.1905 -9.05154 67.8707
lradius 52.6882
lwrist -8.18465
lhand -10.5703 4.17221
lfingers 7.12502
lthumb 15.4344 33.576
rfemur -21.0283 7.8381 19.2596
rtibia 58.5029
rfoot -13.5895 16.6241
rtoes -7.21363
lfemur -19.9416 1.15654 -14.4231
ltibia 36.4159
lfoot -23.6988 -11.7302
ltoes -0.79477
184
root -5.97214 17.9034 -21.7535 -48.3869 87.3588 -53.8758
lowerback 20.6472 -2.40387 -3.6266
upperback 5.4845 -3.62638 -1.53136
thorax -5.43015 -1.59129 1.29596
lowerneck -5.059 1.0067 3.93889
upperneck -2.39288 1.23471 2.68065
head 0.0999672 0.637212 0.191436
rclavicle 6.44062e-014 1.74931e-014
rhumerus -57.7754 10.6336 -88.737
rradius 42.8197
rwrist 1.36527
rhand -1.21349 -17.6876
rfingers 7.12502
rthumb 24.4276 -46.1502
lclavicle 6.44062e-014 1.74931e-014
lhumerus -17.798 -9.34895 67.7599
lradius 54.6631
lwrist -7.40528
lhand -11.5357 4.5089
lfingers 7.12502
lthumb 14.5044 33.9819
rfemur -21.8764 7.56843 19.3401
rtibia 57.417
rfoot -14.502 14.6798
rtoes -7.31862
lfemur -19.2945 0.965386 -14.4291
ltibia 35.5467
lfoot -23.4728 -11.8062
ltoes -0.810926
185
root -5.84531 17.9446 -21.7298 -54.4713 87.5749 -60.1202
lowerback 20.7193 -2.56698 -3.66217
upperback 5.44588 -3.84168 -1.36997
thorax -5.48562 -1.6951 1.5449
lowerneck -5.23315 0.932905 3.7862
upperneck -2.21524 1.12532 2.66047
head 0.181741 0.587519 0.209491
rclavicle 4.73108e-014 1.43125e-014
rhumerus -58.0532 11.0236 -88.7033
rradius 42.9336
rwrist 1.17608
rhand 0.313539 -17.9062
rfingers 7.12502
rthumb 25.8907 -46.1634
lclavicle 4.73108e-014 1.43125e-014
lhumerus -16.5743 -9.83868 67.5749
lradius 56.7543
lwrist -6.8348
lhand -12.2442 4.87438
lfingers 7.12502
lthumb 13.8217 34.3952
rfemur -22.6664 7.34197 19.4479
rtibia 56.181
rfoot -15.2944 12.6195
rtoes -7.31139
lfemur -18.6381 0.784414 -14.4213
ltibia 34.7191
lfoot -23.2639 -11.8055
ltoes -0.814056
